<svg data-v-0dd9719b="" version="1.0" xmlns="http://www.w3.org/2000/svg" xmlns:xlink="http://www.w3.org/1999/xlink" width="100%" height="100%" viewBox="0 0 340.000000 250.000000" preserveAspectRatio="xMidYMid meet" color-interpolation-filters="sRGB" style="margin: auto;"> <rect data-v-0dd9719b="" x="0" y="0" width="100%" height="100%" fill="#fff" fill-opacity="1" class="background"></rect> <rect data-v-0dd9719b="" x="0" y="0" width="100%" height="100%" fill="url(#watermark)" fill-opacity="1" class="watermarklayer"></rect> <g data-v-0dd9719b="" fill="#333333" class="icon-text-wrapper icon-svg-group iconsvg" transform="translate(63.5,94.94319152832031)"><g class="iconsvg-imagesvg" transform="translate(0,0)"><g><rect fill="#333333" fill-opacity="0" stroke-width="2" x="0" y="0" width="60" height="60.11361473184318" class="image-rect"></rect> <svg x="0" y="0" width="60" height="60.11361473184318" filtersec="colorsb3028214513" class="image-svg-svg primary" style="overflow: visible;"><svg xmlns="http://www.w3.org/2000/svg" viewBox="-0.0016283988952636719 -0.021178483963012695 384.0625915527344 384.7880554199219"><g><g><path d="M87.69 353.33c1.34-1.29 2.51-.81 3.61-.59 26.07 5.22 52 3.29 77.91-1.31a62.35 62.35 0 0 1 14.39-1.15c28.8 1.58 56.17-4.18 81.46-17.88 45.56-24.69 73.52-62.63 82.51-113.88 6.84-39 .1-75.85-21.52-109.06-16.08-24.7-39.8-36.92-69.6-37.27-25.77-.3-49.44 6-70.71 20.71-17.74 12.21-29.63 28.91-37.74 48.67.51.11 1 .28 1 .2 10.63-18.31 26.38-31.08 44.61-41.15 18.71-10.34 38.84-16.53 59.75-20.51 4.52-.86 5.49.91 5.39 5-.63 23.85-6.64 45.78-22.81 64-9.57 10.79-21.58 18.11-34.71 23.89s-26.74 9.24-40 14.14c-21.08 7.78-34.88 22.58-42.48 43.48-.48 1.32-.24 3.44-2.14 3.49-1.63 0-1.67-1.9-1.94-3.1-8.19-37.24-9.82-74.35 3.9-110.73 14.3-37.88 42.59-60.36 80.71-71.28 28.89-8.27 58.45-10.84 88.05-5.67 26.18 4.57 48 17.09 63.07 40.11 11.48 17.58 20.9 36.09 26.26 56.36 13.55 51.22 8.95 100.75-17.58 146.92-32.42 56.42-81.5 89.08-146.32 96.7-43.47 5.11-84.11-4.42-121.69-26.89a18.17 18.17 0 0 1-2.41-1.76 7.36 7.36 0 0 1-.97-1.44z" fill="#e89729"></path><path d="M295.76 32.28A216.28 216.28 0 0 0 271.07 29c-19.29-1.4-38.23 1-57.12 4.12a67.27 67.27 0 0 1-14.38 1.16 154.89 154.89 0 0 0-65.14 10.4 157.72 157.72 0 0 0-60.26 41.76C53 110 39.86 137.52 35.31 168.86c-5.39 37.09.88 72.33 20.61 104.23 15.56 25.16 39 38.26 69 39.38a121.58 121.58 0 0 0 60.86-13.15c24.22-12.32 40.3-32.12 50.33-57.09-1.14-.84-1.38.06-1.64.51-12.14 20.81-30.53 34.51-51.68 44.87a195.19 195.19 0 0 1-51.7 16.66c-6.38 1.14-6.88.82-6.48-5.46 1.66-26 8.41-49.93 28.32-68.36 9.8-9.07 21.29-15.35 33.58-20.35s25-8.36 37.28-12.94c20.39-7.58 33.31-22.54 41.11-42.41.58-1.47.51-3.35 2.67-4.33 2.76 6.53 3.59 13.45 4.57 20.27 4.29 29.83 4.4 59.45-5.29 88.45-12 36-36.47 59.77-71.69 72.83-21.79 8.08-44.49 10.91-67.64 11.65-18.26.58-35.83-1.66-52.74-8.69-19.1-7.93-33.68-20.84-44.58-38.46-17.9-28.94-28.32-60-29.95-94.16q-3.66-76.72 45.91-135.16C75.75 32.32 113.35 10.72 158.32 3c47.78-8.19 92.81.26 134.45 25.49a18.12 18.12 0 0 1 2.37 1.81c.2.19.2.6.62 1.98z" fill="#7eb042"></path></g></g></svg></svg> <!----></g></g> <g transform="translate(67,4.3705596923828125)"><g data-gra="path-name" fill-rule="" class="tp-name iconsvg-namesvg" transform="translate(0,0)"><g transform="scale(1)"><g><path d="M8-21.5L8-19.13 17.98-19.13 17.98-21.5 8-21.5ZM36-24.7L36-21.5 36-13.6 36-10.4 22.02-10.4 22.02-8.38 36-8.38 36-5.18 22.02-5.18 22.02-3.2 36-3.2 36 0 22.02 0 17.98 0 4 0 4-3.2 17.98-3.2 17.98-5.18 4-5.18 4-8.38 17.98-8.38 17.98-10.4 8.8-10.4Q6.82-10.4 5.41-11.81 4-13.22 4-15.2L4-15.2 4-21.5 4-24.7 8-24.7 18.02-24.7 18.02-26.71 4-26.71 4-29.91 18.02-29.91 18.02-31.65 4-30.78 4-33.98 36-35.97 36-32.77 22.02-31.9 22.02-29.91 36-29.91 36-26.71 22.02-26.71 22.02-24.7 36-24.7ZM21.98-13.6L32-13.6 32-21.5 21.98-21.5 21.98-19.13 29.98-19.13 28.14-15.93 21.98-15.93 21.98-13.6ZM17.98-13.6L17.98-15.93 8-15.93 8-13.6 17.98-13.6ZM60.05-36L61.93-32.8 61.9-32.8 74-32.8 74-29.6 47.36-29.6 47.36-4.59Q47.36-3.51 47.04-2.28 46.73-1.04 46.07 0L46.07 0 42 0Q43.36-2.05 43.36-4.59L43.36-4.59 43.36-29.6 43.36-32.8 47.36-32.8 57.3-32.8 55.43-36 60.05-36ZM66.56-13.84L74 0 69.48 0 62.03-13.84 66.56-13.84ZM53.9 0L49.34 0 59.63-19.2 49.34-19.2 49.34-22.4 60.09-22.4 60.09-27.58 64.09-27.58 64.09-22.4 74-22.4 74-19.2 64.19-19.2 53.9 0ZM108-36L112-36 112-32.8 112-27.41Q112-24.83 110.71-22.82L110.71-22.82 106.64-22.82Q108-24.87 108-27.41L108-27.41 108-32.8 101.04-32.8 98.4-22.82 94.4-22.82 97.04-32.8 94.4-32.8 94.4-36 97.88-36 101.88-36 108-36ZM108-6.4L99.2-6.4Q97.22-6.4 95.81-7.81 94.4-9.22 94.4-11.2L94.4-11.2 94.4-18.4 94.4-21.6 98.4-21.6 108-21.6 112-21.6 112-18.4 112-9.6 112-6.4 108-6.4ZM108-18.4L98.4-18.4 98.4-9.6 108-9.6 108-18.4ZM89.22-7.58L84.8-7.58Q82.82-7.58 81.41-9.01 80-10.43 80-12.38L80-12.38 80-19.62 80-22.82 80-31.58 80-33.18 80-34.78 89.22-34.78 93.18-34.78 93.18-31.58 93.18-10.78 93.18-7.58 89.22-7.58ZM89.22-31.58L84-31.58 84-22.82 89.11-22.82 87.27-19.62 84-19.62 84-10.78 89.22-10.78 89.22-31.58ZM110.02-5.22L112 0 107.93 0 105.91-5.22 110.02-5.22ZM84.07 0L80 0 81.98-5.22 86.09-5.22 84.07 0ZM92.83-5.22L94.85 0 90.75 0 88.77-5.22 92.83-5.22ZM101.39-5.22L103.41 0 99.3 0 97.32-5.22 101.39-5.22ZM118-16.38L118-19.58 131.98-19.58 131.98-26.4 118-26.4 118-29.6 131.98-29.6 131.98-36 136.02-36 136.02-29.6 150-29.6 150-26.4 136.02-26.4 136.02-19.58 150-19.58 150-16.38 136.02-16.38 136.02-9.6 150-9.6 150-6.4 136.02-6.4 136.02 0 131.98 0 131.98-6.4 118-6.4 118-9.6 131.98-9.6 131.98-16.38 118-16.38Z" transform="translate(-4, 36)"></path></g> <!----> <!----> <!----> <!----> <!----> <!----> <!----></g></g> <g data-gra="path-slogan" fill-rule="" class="tp-slogan iconsvg-slogansvg" fill="#7eb042" transform="translate(1.285003662109375,43)"><rect width="0"></rect> <rect x="146.42999267578125" width="0"></rect> <g transform="translate(0,0)"><g transform="scale(1)"><path d="M8.06-6.05L8.06-6.05L6.94-6.05Q6.52-7.78 4.55-7.83L4.55-7.83Q1.83-7.69 1.73-4.36L1.73-4.36Q1.73-0.80 4.59-0.80L4.59-0.80Q6.56-0.84 7.03-3.19L7.03-3.19L8.16-3.19Q7.64 0.05 4.36 0.14L4.36 0.14Q0.61 0 0.52-4.31L0.52-4.31Q0.70-8.63 4.55-8.81L4.55-8.81Q7.59-8.72 8.06-6.05ZM10.69-5.06L15.19-5.06L15.19-8.58L16.36-8.58L16.36 0L15.19 0L15.19-3.98L10.69-3.98L10.69 0L9.52 0L9.52-8.58L10.69-8.58L10.69-5.06ZM24.94-4.27L24.94-4.27Q24.75-7.64 21.94-7.83L21.94-7.83Q19.08-7.69 18.94-4.27L18.94-4.27Q19.08-0.94 21.94-0.80L21.94-0.80Q24.75-0.98 24.94-4.27ZM26.11-4.27L26.11-4.27Q25.83 0 21.94 0.14L21.94 0.14Q18 0 17.72-4.27L17.72-4.27Q17.95-8.72 21.94-8.81L21.94-8.81Q25.83-8.67 26.11-4.27ZM28.88-8.58L33.19-1.64L33.19-8.58L34.31-8.58L34.31 0L33 0L28.64-6.94L28.59-6.94L28.59 0L27.47 0L27.47-8.58L28.88-8.58ZM42.52-3.61L39.89-3.61L39.89-4.59L43.64-4.59L43.64 0L42.89 0L42.61-1.08Q41.63 0.09 39.80 0.14L39.80 0.14Q38.06 0.14 37.13-0.75L37.13-0.75Q35.72-2.06 35.77-4.36L35.77-4.36Q36.09-8.63 39.84-8.81L39.84-8.81Q43.03-8.63 43.50-6L43.50-6L42.38-6Q41.91-7.78 39.80-7.83L39.80-7.83Q37.13-7.64 36.98-4.31L36.98-4.31Q36.98-0.75 39.84-0.75L39.84-0.75Q40.88-0.75 41.63-1.31L41.63-1.31Q42.56-2.06 42.52-3.61L42.52-3.61ZM50.44-1.08L49.55-1.78L50.16-2.48L51.23-1.64Q52.22-2.63 52.22-4.27L52.22-4.27Q52.03-7.64 49.22-7.83L49.22-7.83Q46.36-7.69 46.22-4.27L46.22-4.27Q46.36-0.94 49.22-0.80L49.22-0.80Q49.92-0.80 50.44-1.08L50.44-1.08ZM52.17-0.94L53.30-0.05L52.73 0.56L51.42-0.33Q50.58 0.14 49.22 0.14L49.22 0.14Q45.28 0 45-4.27L45-4.27Q45.23-8.72 49.22-8.81L49.22-8.81Q53.11-8.67 53.39-4.27L53.39-4.27Q53.34-2.20 52.17-0.94L52.17-0.94ZM54.94-8.58L56.11-8.58L56.11 0L54.94 0L54.94-8.58ZM59.48-8.58L63.80-1.64L63.80-8.58L64.92-8.58L64.92 0L63.61 0L59.25-6.94L59.20-6.94L59.20 0L58.08 0L58.08-8.58L59.48-8.58ZM73.13-3.61L70.50-3.61L70.50-4.59L74.25-4.59L74.25 0L73.50 0L73.22-1.08Q72.23 0.09 70.41 0.14L70.41 0.14Q68.67 0.14 67.73-0.75L67.73-0.75Q66.33-2.06 66.38-4.36L66.38-4.36Q66.70-8.63 70.45-8.81L70.45-8.81Q73.64-8.63 74.11-6L74.11-6L72.98-6Q72.52-7.78 70.41-7.83L70.41-7.83Q67.73-7.64 67.59-4.31L67.59-4.31Q67.59-0.75 70.45-0.75L70.45-0.75Q71.48-0.75 72.23-1.31L72.23-1.31Q73.17-2.06 73.13-3.61L73.13-3.61ZM80.20-1.03L85.50-1.03L85.50 0L78.75 0L78.75-0.94L84-7.59L79.13-7.59L79.13-8.58L85.50-8.58L85.50-7.59L80.20-1.03ZM87.80-5.06L92.30-5.06L92.30-8.58L93.47-8.58L93.47 0L92.30 0L92.30-3.98L87.80-3.98L87.80 0L86.63 0L86.63-8.58L87.80-8.58L87.80-5.06ZM100.92 0L100.08-2.48L96.61-2.48L95.72 0L94.55 0L97.78-8.58L99.09-8.58L102.19 0L100.92 0ZM98.34-7.31L96.98-3.52L99.66-3.52L98.39-7.31L98.34-7.31ZM110.02-4.27L110.02-4.27Q109.83-7.64 107.02-7.83L107.02-7.83Q104.16-7.69 104.02-4.27L104.02-4.27Q104.16-0.94 107.02-0.80L107.02-0.80Q109.83-0.98 110.02-4.27ZM111.19-4.27L111.19-4.27Q110.91 0 107.02 0.14L107.02 0.14Q103.08 0 102.80-4.27L102.80-4.27Q103.03-8.72 107.02-8.81L107.02-8.81Q110.91-8.67 111.19-4.27ZM118.08-3.89L113.86-3.89L113.86 0L112.69 0L112.69-8.58L118.64-8.58L118.64-7.59L113.86-7.59L113.86-4.92L118.08-4.92L118.08-3.89ZM121.13-1.03L126.28-1.03L126.28 0L119.95 0L119.95-8.58L126.19-8.58L126.19-7.59L121.13-7.59L121.13-4.92L125.81-4.92L125.81-3.89L121.13-3.89L121.13-1.03ZM129.19-8.58L133.50-1.64L133.50-8.58L134.63-8.58L134.63 0L133.31 0L128.95-6.94L128.91-6.94L128.91 0L127.78 0L127.78-8.58L129.19-8.58ZM142.83-3.61L140.20-3.61L140.20-4.59L143.95-4.59L143.95 0L143.20 0L142.92-1.08Q141.94 0.09 140.11 0.14L140.11 0.14Q138.38 0.14 137.44-0.75L137.44-0.75Q136.03-2.06 136.08-4.36L136.08-4.36Q136.41-8.63 140.16-8.81L140.16-8.81Q143.34-8.63 143.81-6L143.81-6L142.69-6Q142.22-7.78 140.11-7.83L140.11-7.83Q137.44-7.64 137.30-4.31L137.30-4.31Q137.30-0.75 140.16-0.75L140.16-0.75Q141.19-0.75 141.94-1.31L141.94-1.31Q142.88-2.06 142.83-3.61L142.83-3.61Z" transform="translate(-0.515625, 8.8125)"></path></g></g></g></g></g><defs v-gra="od"></defs></svg>